<svg width="40" height="14" viewBox="0 0 40 14" fill="none" xmlns="http://www.w3.org/2000/svg">
<path d="M5.1 13.323C4.20467 13.323 3.417 13.1473 2.737 12.796C2.057 12.4447 1.53 11.929 1.156 11.249C0.782 10.569 0.595 9.736 0.595 8.75V8.206H2.992V8.954C2.992 9.61133 3.18467 10.1327 3.57 10.518C3.95533 10.892 4.45967 11.079 5.083 11.079C5.71767 11.079 6.222 10.892 6.596 10.518C6.98133 10.1327 7.174 9.61133 7.174 8.954V2.375H9.588V8.75C9.588 9.736 9.401 10.569 9.027 11.249C8.653 11.929 8.13167 12.4447 7.463 12.796C6.79433 13.1473 6.00667 13.323 5.1 13.323ZM2.108 2.715V0.59H9.588V2.715H2.108ZM15.3612 13.068V10.824H17.9282C18.5742 10.824 19.1466 10.7277 19.6452 10.535C20.1552 10.331 20.5859 10.0477 20.9372 9.685C21.2886 9.32233 21.5549 8.89733 21.7362 8.41C21.9289 7.91133 22.0252 7.36167 22.0252 6.761C22.0252 6.13767 21.9289 5.58233 21.7362 5.095C21.5549 4.59633 21.2886 4.17133 20.9372 3.82C20.5859 3.46867 20.1552 3.20233 19.6452 3.021C19.1466 2.83967 18.5742 2.749 17.9282 2.749H15.3612V0.505H17.7752C18.8972 0.505 19.8776 0.669333 20.7162 0.997999C21.5549 1.32667 22.2519 1.78 22.8072 2.358C23.3626 2.92467 23.7762 3.57633 24.0482 4.313C24.3316 5.03833 24.4732 5.792 24.4732 6.574V6.948C24.4732 7.696 24.3316 8.43267 24.0482 9.158C23.7762 9.88333 23.3626 10.5407 22.8072 11.13C22.2519 11.7193 21.5549 12.1897 20.7162 12.541C19.8776 12.8923 18.8972 13.068 17.7752 13.068H15.3612ZM13.2872 13.068V0.505H15.7012V13.068H13.2872ZM27.4849 13V0.59H31.4459L36.6649 10.994H37.2259L36.8859 11.3V0.59H39.1639V13H35.1859L29.9669 2.596H29.3889L29.7289 2.29V13H27.4849Z" fill="white"/>
</svg>
