<svg width="231" height="27" viewBox="0 0 231 27" fill="none" xmlns="http://www.w3.org/2000/svg">
<path d="M9.5 26.665C7.65667 26.665 6.035 26.3033 4.635 25.58C3.235 24.8567 2.15 23.795 1.38 22.395C0.61 20.995 0.225 19.28 0.225 17.25V16.13H5.16V17.67C5.16 19.0233 5.55667 20.0967 6.35 20.89C7.14333 21.66 8.18167 22.045 9.465 22.045C10.7717 22.045 11.81 21.66 12.58 20.89C13.3733 20.0967 13.77 19.0233 13.77 17.67V4.125H18.74V17.25C18.74 19.28 18.355 20.995 17.585 22.395C16.815 23.795 15.7417 24.8567 14.365 25.58C12.9883 26.3033 11.3667 26.665 9.5 26.665ZM3.34 4.825V0.449999H18.74V4.825H3.34ZM32.4461 26.595C30.2527 26.595 28.5494 25.8717 27.3361 24.425C26.1461 22.9783 25.5511 20.8317 25.5511 17.985V6.96H30.4161V18.405C30.4161 19.5717 30.7427 20.505 31.3961 21.205C32.0494 21.8817 32.9361 22.22 34.0561 22.22C35.1761 22.22 36.0861 21.8583 36.7861 21.135C37.5094 20.4117 37.8711 19.4317 37.8711 18.195V6.96H42.7361V26H38.8861V17.915H39.2711C39.2711 19.8283 39.0261 21.4267 38.5361 22.71C38.0461 23.9933 37.3111 24.9617 36.3311 25.615C35.3511 26.2683 34.1261 26.595 32.6561 26.595H32.4461ZM56.9696 26.595C54.3562 26.595 52.3029 26.0467 50.8096 24.95C49.3396 23.83 48.5696 22.29 48.4996 20.33H52.8746C52.9446 20.9833 53.3062 21.5783 53.9596 22.115C54.6129 22.6517 55.6396 22.92 57.0396 22.92C58.2062 22.92 59.1279 22.71 59.8046 22.29C60.5046 21.87 60.8546 21.2983 60.8546 20.575C60.8546 19.945 60.5862 19.4433 60.0496 19.07C59.5362 18.6967 58.6496 18.4517 57.3896 18.335L55.7096 18.16C53.5862 17.9267 51.9529 17.32 50.8096 16.34C49.6662 15.36 49.0946 14.0533 49.0946 12.42C49.0946 11.1133 49.4212 10.0167 50.0746 9.13C50.7279 8.24333 51.6262 7.57833 52.7696 7.135C53.9362 6.66833 55.2662 6.435 56.7596 6.435C59.0929 6.435 60.9829 6.94833 62.4296 7.975C63.8762 9.00167 64.6346 10.5067 64.7046 12.49H60.3296C60.2829 11.8367 59.9562 11.2767 59.3496 10.81C58.7429 10.3433 57.8679 10.11 56.7246 10.11C55.6979 10.11 54.9046 10.3083 54.3446 10.705C53.7846 11.1017 53.5046 11.615 53.5046 12.245C53.5046 12.8517 53.7262 13.3183 54.1696 13.645C54.6362 13.9717 55.3829 14.1933 56.4096 14.31L58.0896 14.485C60.3296 14.7183 62.0796 15.3367 63.3396 16.34C64.6229 17.3433 65.2646 18.6967 65.2646 20.4C65.2646 21.66 64.9146 22.7567 64.2146 23.69C63.5379 24.6 62.5812 25.3117 61.3446 25.825C60.1079 26.3383 58.6496 26.595 56.9696 26.595ZM79.2936 26.245C77.5436 26.245 76.0969 26.0233 74.9536 25.58C73.8336 25.1133 72.9936 24.3433 72.4336 23.27C71.8736 22.1733 71.5936 20.7033 71.5936 18.86L71.6286 1.64H76.1786L76.1436 19.175C76.1436 20.1083 76.3886 20.8317 76.8786 21.345C77.3919 21.835 78.1152 22.08 79.0486 22.08H82.0236V26.245H79.2936ZM68.5836 10.565V6.995H82.0236V10.565H68.5836ZM92.5118 26.14V21.52H97.7968C99.1268 21.52 100.305 21.3217 101.332 20.925C102.382 20.505 103.268 19.9217 103.992 19.175C104.715 18.4283 105.263 17.5533 105.637 16.55C106.033 15.5233 106.232 14.3917 106.232 13.155C106.232 11.8717 106.033 10.7283 105.637 9.725C105.263 8.69833 104.715 7.82333 103.992 7.1C103.268 6.37667 102.382 5.82833 101.332 5.455C100.305 5.08167 99.1268 4.895 97.7968 4.895H92.5118V0.274999H97.4818C99.7918 0.274999 101.81 0.613333 103.537 1.29C105.263 1.96667 106.698 2.9 107.842 4.09C108.985 5.25667 109.837 6.59833 110.397 8.115C110.98 9.60833 111.272 11.16 111.272 12.77V13.54C111.272 15.08 110.98 16.5967 110.397 18.09C109.837 19.5833 108.985 20.9367 107.842 22.15C106.698 23.3633 105.263 24.3317 103.537 25.055C101.81 25.7783 99.7918 26.14 97.4818 26.14H92.5118ZM88.2418 26.14V0.274999H93.2118V26.14H88.2418ZM122.022 26.665C120.342 26.665 118.861 26.3967 117.577 25.86C116.294 25.3233 115.209 24.6 114.322 23.69C113.436 22.7567 112.759 21.7067 112.292 20.54C111.849 19.3733 111.627 18.16 111.627 16.9V16.165C111.627 14.8583 111.861 13.6217 112.327 12.455C112.817 11.265 113.506 10.215 114.392 9.305C115.302 8.37167 116.399 7.64833 117.682 7.135C118.966 6.59833 120.412 6.33 122.022 6.33C123.632 6.33 125.079 6.59833 126.362 7.135C127.646 7.64833 128.731 8.37167 129.617 9.305C130.527 10.215 131.216 11.265 131.682 12.455C132.149 13.6217 132.382 14.8583 132.382 16.165V16.9C132.382 18.16 132.149 19.3733 131.682 20.54C131.239 21.7067 130.574 22.7567 129.687 23.69C128.801 24.6 127.716 25.3233 126.432 25.86C125.149 26.3967 123.679 26.665 122.022 26.665ZM122.022 22.5C123.212 22.5 124.216 22.2433 125.032 21.73C125.849 21.1933 126.467 20.4817 126.887 19.595C127.307 18.685 127.517 17.6583 127.517 16.515C127.517 15.3483 127.296 14.3217 126.852 13.435C126.432 12.525 125.802 11.8133 124.962 11.3C124.146 10.7633 123.166 10.495 122.022 10.495C120.879 10.495 119.887 10.7633 119.047 11.3C118.231 11.8133 117.601 12.525 117.157 13.435C116.714 14.3217 116.492 15.3483 116.492 16.515C116.492 17.6583 116.702 18.685 117.122 19.595C117.566 20.4817 118.196 21.1933 119.012 21.73C119.829 22.2433 120.832 22.5 122.022 22.5ZM134.577 26V0.449999H142.732L153.477 21.87H154.632L153.932 22.5V0.449999H158.622V26H150.432L139.687 4.58H138.497L139.197 3.95V26H134.577ZM171.229 26.665C169.549 26.665 168.067 26.3967 166.784 25.86C165.5 25.3233 164.415 24.6 163.529 23.69C162.642 22.7567 161.965 21.7067 161.499 20.54C161.055 19.3733 160.834 18.16 160.834 16.9V16.165C160.834 14.8583 161.067 13.6217 161.534 12.455C162.024 11.265 162.712 10.215 163.599 9.305C164.509 8.37167 165.605 7.64833 166.889 7.135C168.172 6.59833 169.619 6.33 171.229 6.33C172.839 6.33 174.285 6.59833 175.569 7.135C176.852 7.64833 177.937 8.37167 178.824 9.305C179.734 10.215 180.422 11.265 180.889 12.455C181.355 13.6217 181.589 14.8583 181.589 16.165V16.9C181.589 18.16 181.355 19.3733 180.889 20.54C180.445 21.7067 179.78 22.7567 178.894 23.69C178.007 24.6 176.922 25.3233 175.639 25.86C174.355 26.3967 172.885 26.665 171.229 26.665ZM171.229 22.5C172.419 22.5 173.422 22.2433 174.239 21.73C175.055 21.1933 175.674 20.4817 176.094 19.595C176.514 18.685 176.724 17.6583 176.724 16.515C176.724 15.3483 176.502 14.3217 176.059 13.435C175.639 12.525 175.009 11.8133 174.169 11.3C173.352 10.7633 172.372 10.495 171.229 10.495C170.085 10.495 169.094 10.7633 168.254 11.3C167.437 11.8133 166.807 12.525 166.364 13.435C165.92 14.3217 165.699 15.3483 165.699 16.515C165.699 17.6583 165.909 18.685 166.329 19.595C166.772 20.4817 167.402 21.1933 168.219 21.73C169.035 22.2433 170.039 22.5 171.229 22.5ZM191.659 26.245C189.909 26.245 188.462 26.0233 187.319 25.58C186.199 25.1133 185.359 24.3433 184.799 23.27C184.239 22.1733 183.959 20.7033 183.959 18.86L183.994 1.64H188.544L188.509 19.175C188.509 20.1083 188.754 20.8317 189.244 21.345C189.757 21.835 190.48 22.08 191.414 22.08H194.389V26.245H191.659ZM180.949 10.565V6.995H194.389V10.565H180.949ZM204.424 26.665C202.791 26.665 201.356 26.385 200.119 25.825C198.906 25.265 197.891 24.5183 197.074 23.585C196.281 22.6283 195.674 21.5667 195.254 20.4C194.858 19.2333 194.659 18.0433 194.659 16.83V16.165C194.659 14.905 194.858 13.6917 195.254 12.525C195.674 11.335 196.281 10.285 197.074 9.375C197.891 8.44167 198.894 7.70667 200.084 7.17C201.274 6.61 202.651 6.33 204.214 6.33C206.268 6.33 207.983 6.785 209.359 7.695C210.759 8.58167 211.809 9.76 212.509 11.23C213.209 12.6767 213.559 14.24 213.559 15.92V17.67H196.724V14.695H210.514L209.009 16.165C209.009 14.9517 208.834 13.9133 208.484 13.05C208.134 12.1867 207.598 11.5217 206.874 11.055C206.174 10.5883 205.288 10.355 204.214 10.355C203.141 10.355 202.231 10.6 201.484 11.09C200.738 11.58 200.166 12.2917 199.769 13.225C199.396 14.135 199.209 15.2317 199.209 16.515C199.209 17.705 199.396 18.7667 199.769 19.7C200.143 20.61 200.714 21.3333 201.484 21.87C202.254 22.3833 203.234 22.64 204.424 22.64C205.614 22.64 206.583 22.4067 207.329 21.94C208.076 21.45 208.554 20.855 208.764 20.155H213.244C212.964 21.4617 212.428 22.605 211.634 23.585C210.841 24.565 209.826 25.3233 208.589 25.86C207.376 26.3967 205.988 26.665 204.424 26.665ZM222.068 26.595C219.455 26.595 217.402 26.0467 215.908 24.95C214.438 23.83 213.668 22.29 213.598 20.33H217.973C218.043 20.9833 218.405 21.5783 219.058 22.115C219.712 22.6517 220.738 22.92 222.138 22.92C223.305 22.92 224.227 22.71 224.903 22.29C225.603 21.87 225.953 21.2983 225.953 20.575C225.953 19.945 225.685 19.4433 225.148 19.07C224.635 18.6967 223.748 18.4517 222.488 18.335L220.808 18.16C218.685 17.9267 217.052 17.32 215.908 16.34C214.765 15.36 214.193 14.0533 214.193 12.42C214.193 11.1133 214.52 10.0167 215.173 9.13C215.827 8.24333 216.725 7.57833 217.868 7.135C219.035 6.66833 220.365 6.435 221.858 6.435C224.192 6.435 226.082 6.94833 227.528 7.975C228.975 9.00167 229.733 10.5067 229.803 12.49H225.428C225.382 11.8367 225.055 11.2767 224.448 10.81C223.842 10.3433 222.967 10.11 221.823 10.11C220.797 10.11 220.003 10.3083 219.443 10.705C218.883 11.1017 218.603 11.615 218.603 12.245C218.603 12.8517 218.825 13.3183 219.268 13.645C219.735 13.9717 220.482 14.1933 221.508 14.31L223.188 14.485C225.428 14.7183 227.178 15.3367 228.438 16.34C229.722 17.3433 230.363 18.6967 230.363 20.4C230.363 21.66 230.013 22.7567 229.313 23.69C228.637 24.6 227.68 25.3117 226.443 25.825C225.207 26.3383 223.748 26.595 222.068 26.595Z" fill="white"/>
</svg>
